<!--?xml version="1.0" standalone="no"?-->
              <svg id="sw-js-blob-svg" viewBox="0 0 100 100" xmlns="http://www.w3.org/2000/svg" version="1.1">
                    <defs> 
                        <linearGradient id="sw-gradient" x1="0" x2="1" y1="1" y2="0">
                            <stop id="stop1" stop-color="rgba(255, 251.687, 214.54, 1)" offset="0%"></stop>
                            <stop id="stop2" stop-color="rgba(255, 203.698, 111.014, 1)" offset="100%"></stop>
                        </linearGradient>
                    </defs>
                <path fill="url(#sw-gradient)" d="M22.1,-29.1C27.6,-26.5,30.3,-18.6,31.5,-11.1C32.8,-3.6,32.7,3.5,31.2,10.8C29.8,18.1,27,25.7,21.5,28.3C16.1,31,8.1,28.7,2.7,25C-2.7,21.3,-5.4,16.2,-12.1,14C-18.8,11.8,-29.5,12.4,-35.5,8.2C-41.6,3.9,-42.9,-5.2,-39.1,-11.5C-35.4,-17.7,-26.5,-21,-19.2,-23C-11.8,-25.1,-5.9,-25.8,1.2,-27.5C8.3,-29.1,16.7,-31.8,22.1,-29.1Z" width="100%" height="100%" transform="translate(50 50)" stroke-width="0" style="transition: all 0.3s ease 0s;"></path>
              </svg>